<svg width="340" height="340" viewBox="0 0 340 340" fill="none" xmlns="http://www.w3.org/2000/svg">
<path d="M102.6 143.58C106.007 143.58 108.97 144.07 111.49 145.05C114.01 146.03 116.367 147.523 118.56 149.53L114.01 154.78C112.283 153.333 110.533 152.283 108.76 151.63C107.033 150.977 105.167 150.65 103.16 150.65C100.92 150.65 99.1 151.163 97.7 152.19C96.3467 153.17 95.67 154.57 95.67 156.39C95.67 157.603 95.9267 158.607 96.44 159.4C97 160.193 97.98 160.94 99.38 161.64C100.78 162.34 102.857 163.11 105.61 163.95C110.37 165.443 113.94 167.31 116.32 169.55C118.747 171.743 119.96 174.963 119.96 179.21C119.96 182.103 119.213 184.67 117.72 186.91C116.273 189.15 114.173 190.9 111.42 192.16C108.667 193.42 105.4 194.05 101.62 194.05C97.9333 194.05 94.62 193.467 91.68 192.3C88.7867 191.087 86.29 189.453 84.19 187.4L88.95 182.08C90.8167 183.667 92.7533 184.88 94.76 185.72C96.7667 186.513 98.9833 186.91 101.41 186.91C104.07 186.91 106.217 186.28 107.85 185.02C109.483 183.76 110.3 181.987 110.3 179.7C110.3 178.3 110.02 177.157 109.46 176.27C108.9 175.337 107.943 174.52 106.59 173.82C105.237 173.073 103.277 172.303 100.71 171.51C95.5767 169.923 91.8667 168.01 89.58 165.77C87.2933 163.53 86.15 160.59 86.15 156.95C86.15 154.29 86.85 151.957 88.25 149.95C89.65 147.943 91.5867 146.38 94.06 145.26C96.58 144.14 99.4267 143.58 102.6 143.58ZM157.416 144.63L156.436 151.98H143.836V193H134.526V151.98H121.506V144.63H157.416ZM178.575 173.61H172.695V193H163.455V144.63H177.875C190.662 144.63 197.055 149.367 197.055 158.84C197.055 162.06 196.262 164.72 194.675 166.82C193.088 168.92 190.615 170.623 187.255 171.93L199.925 193H189.285L178.575 173.61ZM172.695 166.96H178.435C181.375 166.96 183.592 166.33 185.085 165.07C186.625 163.763 187.395 161.687 187.395 158.84C187.395 156.227 186.602 154.337 185.015 153.17C183.475 151.957 181.025 151.35 177.665 151.35H172.695V166.96ZM224.046 143.58C228.386 143.58 232.143 144.56 235.316 146.52C238.49 148.48 240.916 151.35 242.596 155.13C244.323 158.91 245.186 163.46 245.186 168.78C245.186 174.053 244.323 178.58 242.596 182.36C240.87 186.14 238.42 189.033 235.246 191.04C232.073 193.047 228.34 194.05 224.046 194.05C219.706 194.05 215.95 193.07 212.776 191.11C209.603 189.15 207.153 186.28 205.426 182.5C203.7 178.72 202.836 174.17 202.836 168.85C202.836 163.623 203.7 159.12 205.426 155.34C207.153 151.513 209.603 148.597 212.776 146.59C215.996 144.583 219.753 143.58 224.046 143.58ZM224.046 150.65C220.313 150.65 217.466 152.12 215.506 155.06C213.546 157.953 212.566 162.55 212.566 168.85C212.566 180.937 216.393 186.98 224.046 186.98C227.78 186.98 230.603 185.533 232.516 182.64C234.476 179.747 235.456 175.127 235.456 168.78C235.456 162.48 234.476 157.883 232.516 154.99C230.603 152.097 227.78 150.65 224.046 150.65ZM263.135 144.63V185.44H282.525L281.475 193H253.895V144.63H263.135ZM314.164 144.63L313.184 151.98H300.584V193H291.274V151.98H278.254V144.63H314.164Z" fill="#276840"/>
<path d="M25 70V270" stroke="#276840" stroke-width="7" stroke-linecap="square"/>
<path d="M25 70H225" stroke="#276840" stroke-width="7" stroke-linecap="square"/>
<path d="M25 270H225" stroke="#276840" stroke-width="7" stroke-linecap="square"/>
<path d="M225 70V115" stroke="#276840" stroke-width="7" stroke-linecap="square"/>
<path d="M225 225V270" stroke="#276840" stroke-width="7" stroke-linecap="square"/>
</svg>
