<svg width="512" height="512" viewBox="0 0 512 512" fill="none" xmlns="http://www.w3.org/2000/svg">
<rect width="512" height="512" rx="50" fill="#276840"/>
<path d="M256 89.3C277.9 89.3 296.95 92.45 313.15 98.75C329.35 105.05 344.5 114.65 358.6 127.55L329.35 161.3C318.25 152 307 145.25 295.6 141.05C284.5 136.85 272.5 134.75 259.6 134.75C245.2 134.75 233.5 138.05 224.5 144.65C215.8 150.95 211.45 159.95 211.45 171.65C211.45 179.45 213.1 185.9 216.4 191C220 196.1 226.3 200.9 235.3 205.4C244.3 209.9 257.65 214.85 275.35 220.25C305.95 229.85 328.9 241.85 344.2 256.25C359.8 270.35 367.6 291.05 367.6 318.35C367.6 336.95 362.8 353.45 353.2 367.85C343.9 382.25 330.4 393.5 312.7 401.6C295 409.7 274 413.75 249.7 413.75C226 413.75 204.7 410 185.8 402.5C167.2 394.7 151.15 384.2 137.65 371L168.25 336.8C180.25 347 192.7 354.8 205.6 360.2C218.5 365.3 232.75 367.85 248.35 367.85C265.45 367.85 279.25 363.8 289.75 355.7C300.25 347.6 305.5 336.2 305.5 321.5C305.5 312.5 303.7 305.15 300.1 299.45C296.5 293.45 290.35 288.2 281.65 283.7C272.95 278.9 260.35 273.95 243.85 268.85C210.85 258.65 187 246.35 172.3 231.95C157.6 217.55 150.25 198.65 150.25 175.25C150.25 158.15 154.75 143.15 163.75 130.25C172.75 117.35 185.2 107.3 201.1 100.1C217.3 92.9 235.6 89.3 256 89.3Z" fill="white"/>
</svg>
